<?xml version="1.0" encoding="UTF-8"?>
<svg id="Layer_2" data-name="Layer 2" xmlns="http://www.w3.org/2000/svg" viewBox="0 0 56.08 50">
  <defs>
    <style>
      .cls-1 {
        stroke-width: 0px;
      }
    </style>
  </defs>
  <g id="Layer_1-2" data-name="Layer 1">
    <path id="Icon_awesome-anchor" data-name="Icon awesome-anchor" class="cls-1" d="m1.18,34.37h3.17c2.13,10.03,13.33,15.63,23.7,15.63s21.57-5.6,23.69-15.63h3.17c.64,0,1.17-.51,1.18-1.15,0-.32-.12-.63-.35-.85l-6.55-6.54c-.45-.46-1.19-.46-1.65,0,0,0,0,0,0,0l-6.55,6.55c-.46.45-.47,1.19-.02,1.65.22.23.53.35.85.35h3.43c-1.98,5.31-8.3,8.46-14.07,9.18v-18.56h5.08c.64,0,1.17-.52,1.17-1.17h0v-3.91c0-.64-.52-1.17-1.17-1.17h-5.09v-.54c4.88-1.73,7.44-7.08,5.71-11.96S29.79-1.19,24.91.54s-7.44,7.08-5.71,11.96c.94,2.67,3.04,4.77,5.71,5.71v.54h-5.08c-.64,0-1.17.52-1.17,1.17v3.92c0,.64.52,1.17,1.17,1.17h5.08v18.56c-5.76-.72-12.09-3.88-14.07-9.18h3.43c.64,0,1.17-.51,1.18-1.15,0-.32-.12-.63-.35-.85l-6.54-6.54c-.45-.46-1.19-.46-1.65,0,0,0,0,0,0,0L.35,32.37c-.46.45-.47,1.19-.02,1.65.22.23.53.35.85.35ZM28.04,6.25c1.73,0,3.13,1.4,3.13,3.13s-1.4,3.13-3.13,3.13-3.13-1.4-3.13-3.13c0-1.73,1.4-3.12,3.13-3.13Z"/>
  </g>
</svg>