<?xml version="1.0" encoding="UTF-8"?>
<svg id="Layer_2" data-name="Layer 2" xmlns="http://www.w3.org/2000/svg" viewBox="0 0 43.75 50">
  <defs>
    <style>
      .cls-1 {
        stroke-width: 0px;
      }
    </style>
  </defs>
  <g id="Layer_1-2" data-name="Layer 1">
    <path id="Icon_awesome-bell" data-name="Icon awesome-bell" class="cls-1" d="m21.88,50c3.45,0,6.25-2.8,6.25-6.25h-12.5c0,3.45,2.8,6.25,6.25,6.25,0,0,0,0,0,0Zm21.04-14.62c-1.89-2.03-5.42-5.08-5.42-15.07,0-7.39-5.24-13.74-12.49-15.15v-2.04c0-1.73-1.4-3.12-3.12-3.12s-3.12,1.4-3.12,3.12v2.04c-7.26,1.4-12.5,7.76-12.5,15.15,0,9.99-3.53,13.04-5.42,15.07C.3,35.96,0,36.71,0,37.5c0,1.73,1.4,3.13,3.13,3.13,0,0,0,0,0,0h37.48c1.73,0,3.13-1.39,3.14-3.12,0,0,0,0,0,0,0-.79-.29-1.55-.83-2.12h0Z"/>
  </g>
</svg>