<?xml version="1.0" encoding="UTF-8"?>
<svg id="Layer_2" data-name="Layer 2" xmlns="http://www.w3.org/2000/svg" viewBox="0 0 43.75 50">
  <defs>
    <style>
      .cls-1 {
        stroke-width: 0px;
      }
    </style>
  </defs>
  <g id="Layer_1-2" data-name="Layer 1">
    <path id="Icon_awesome-book" data-name="Icon awesome-book" class="cls-1" d="m43.75,35.16V2.34C43.76,1.05,42.72,0,41.43,0c0,0-.01,0-.02,0H9.37C4.2,0,0,4.2,0,9.38v31.25c0,5.18,4.2,9.37,9.37,9.37h32.03c1.29,0,2.34-1.03,2.34-2.32,0,0,0-.01,0-.02v-1.56c0-.71-.32-1.38-.87-1.83-.41-2.41-.41-4.88,0-7.29.55-.44.87-1.11.87-1.81ZM12.5,13.09c0-.32.26-.59.59-.59h20.7c.32,0,.59.26.59.59v1.95c0,.32-.26.59-.59.59H13.09c-.32,0-.59-.26-.59-.59v-1.95Zm0,6.25c0-.32.26-.59.59-.59h20.7c.32,0,.59.26.59.59v1.95c0,.32-.26.59-.59.59H13.09c-.32,0-.59-.26-.59-.59v-1.95Zm24.75,24.41H9.37c-1.73,0-3.12-1.4-3.12-3.12s1.4-3.12,3.12-3.12h27.87c-.19,2.08-.19,4.17,0,6.25Z"/>
  </g>
</svg>