<?xml version="1.0" encoding="UTF-8"?>
<svg id="Layer_2" data-name="Layer 2" xmlns="http://www.w3.org/2000/svg" viewBox="0 0 49.24 48.98">
  <defs>
    <style>
      .cls-1 {
        stroke-width: 0px;
      }
    </style>
  </defs>
  <g id="Layer_1-2" data-name="Layer 1">
    <g>
      <g>
        <path class="cls-1" d="m42.71,25.28h-10.61c-3.61,0-6.56,2.92-6.56,6.54v10.61c0,3.63,2.94,6.56,6.56,6.56h10.61c3.61,0,6.54-2.92,6.54-6.56v-10.61c0-3.61-2.92-6.54-6.54-6.54Zm.67,14.48c0,1.84-1.5,3.34-3.35,3.34h-5.26c-1.84,0-3.34-1.5-3.34-3.34v-5.26c0-1.84,1.5-3.34,3.34-3.34h5.26c1.86,0,3.35,1.5,3.35,3.34v5.26Z"/>
        <path class="cls-1" d="m42.71,0h-10.61c-3.61,0-6.56,2.92-6.56,6.54v10.61c0,3.63,2.94,6.56,6.56,6.56h10.61c3.61,0,6.54-2.92,6.54-6.56V6.54c0-3.61-2.92-6.54-6.54-6.54Zm.67,14.48c0,1.84-1.5,3.34-3.35,3.34h-5.26c-1.84,0-3.34-1.5-3.34-3.34v-5.26c0-1.84,1.5-3.34,3.34-3.34h5.26c1.86,0,3.35,1.5,3.35,3.34v5.26Z"/>
      </g>
      <g>
        <path class="cls-1" d="m17.16,25.28H6.56c-3.61,0-6.56,2.92-6.56,6.54v10.61c0,3.63,2.94,6.56,6.56,6.56h10.61c3.61,0,6.54-2.92,6.54-6.56v-10.61c0-3.61-2.92-6.54-6.54-6.54Zm.67,14.48c0,1.84-1.5,3.34-3.35,3.34h-5.26c-1.84,0-3.34-1.5-3.34-3.34v-5.26c0-1.84,1.5-3.34,3.34-3.34h5.26c1.86,0,3.35,1.5,3.35,3.34v5.26Z"/>
        <path class="cls-1" d="m17.16,0H6.56C2.94,0,0,2.92,0,6.54v10.61c0,3.63,2.94,6.56,6.56,6.56h10.61c3.61,0,6.54-2.92,6.54-6.56V6.54c0-3.61-2.92-6.54-6.54-6.54Zm.67,14.48c0,1.84-1.5,3.34-3.35,3.34h-5.26c-1.84,0-3.34-1.5-3.34-3.34v-5.26c0-1.84,1.5-3.34,3.34-3.34h5.26c1.86,0,3.35,1.5,3.35,3.34v5.26Z"/>
      </g>
    </g>
  </g>
</svg>