<?xml version="1.0" encoding="UTF-8"?>
<svg id="Layer_2" data-name="Layer 2" xmlns="http://www.w3.org/2000/svg" viewBox="0 0 48.63 50">
  <defs>
    <style>
      .cls-1 {
        stroke-width: 0px;
      }
    </style>
  </defs>
  <g id="Layer_1-2" data-name="Layer 1">
    <path id="Icon_material-settings" data-name="Icon material-settings" class="cls-1" d="m42.89,27.45c.11-.81.17-1.63.18-2.45,0-.82-.07-1.64-.18-2.45l5.27-4.12c.48-.39.6-1.06.3-1.6l-5-8.66c-.31-.53-.95-.76-1.53-.55l-6.22,2.5c-1.29-1-2.71-1.82-4.22-2.44l-.96-6.62C30.45.44,29.93,0,29.31,0h-10c-.61,0-1.14.44-1.23,1.05l-.95,6.62c-1.51.63-2.93,1.45-4.23,2.44l-6.23-2.5c-.57-.23-1.23,0-1.53.55L.17,16.82c-.32.53-.19,1.22.3,1.6l5.27,4.12c-.11.81-.17,1.63-.18,2.45,0,.82.07,1.64.18,2.45L.46,31.57c-.48.39-.6,1.06-.3,1.6l5,8.65c.31.53.95.76,1.53.55l6.23-2.5c1.29,1,2.71,1.83,4.23,2.45l.95,6.62c.09.61.61,1.06,1.23,1.05h10c.61,0,1.14-.44,1.23-1.05l.95-6.62c1.51-.63,2.93-1.45,4.23-2.45l6.23,2.5c.57.23,1.23,0,1.53-.55l5-8.65c.3-.53.18-1.21-.3-1.6l-5.27-4.12h0Zm-18.57,6.3c-4.83,0-8.75-3.92-8.75-8.75s3.92-8.75,8.75-8.75,8.75,3.92,8.75,8.75-3.92,8.75-8.75,8.75Z"/>
  </g>
</svg>