<?xml version="1.0" encoding="UTF-8"?>
<svg id="Layer_2" data-name="Layer 2" xmlns="http://www.w3.org/2000/svg" viewBox="0 0 50 50.03">
  <defs>
    <style>
      .cls-1 {
        stroke-width: 0px;
      }
    </style>
  </defs>
  <g id="Layer_1-2" data-name="Layer 1">
    <g>
      <path id="Rectangle_34" data-name="Rectangle 34" class="cls-1" d="m4.38,0h41.25c2.42,0,4.38,1.96,4.38,4.38h0c0,2.42-1.96,4.38-4.38,4.38H4.38C1.96,8.75,0,6.79,0,4.38h0C0,1.96,1.96,0,4.38,0Z"/>
      <path id="Rectangle_36" data-name="Rectangle 36" class="cls-1" d="m4.38,20.62h41.25c2.42,0,4.38,1.96,4.38,4.38h0c0,2.42-1.96,4.38-4.38,4.38H4.38c-2.42,0-4.38-1.96-4.38-4.38h0c0-2.42,1.96-4.38,4.38-4.38Z"/>
      <path id="Rectangle_38" data-name="Rectangle 38" class="cls-1" d="m4.37,41.28l41.25-.06c2.42,0,4.38,1.95,4.38,4.37h0c0,2.42-1.95,4.38-4.37,4.38l-41.25.06C1.97,50.04,0,48.08,0,45.66H0c0-2.42,1.95-4.38,4.37-4.38Z"/>
    </g>
  </g>
</svg>