<?xml version="1.0" encoding="UTF-8"?>
<svg id="Layer_2" data-name="Layer 2" xmlns="http://www.w3.org/2000/svg" viewBox="0 0 50.01 50">
  <defs>
    <style>
      .cls-1 {
        fill: #020202;
        stroke-width: 0px;
      }
    </style>
  </defs>
  <g id="Layer_1-2" data-name="Layer 1">
    <path id="Icon_awesome-link" data-name="Icon awesome-link" class="cls-1" d="m31.9,18.1c5.79,5.78,5.8,15.15.04,20.95l-.04.04-6.56,6.56c-5.8,5.8-15.2,5.8-20.99,0-5.8-5.8-5.8-15.2,0-20.99l3.62-3.62c.61-.61,1.6-.61,2.21,0,.28.28.44.65.46,1.04.06,1.75.38,3.49.95,5.15.2.57.05,1.2-.37,1.62l-1.28,1.28c-2.84,2.64-3.01,7.09-.36,9.94,2.64,2.84,7.09,3.01,9.94.36.1-.1.21-.2.3-.3l6.56-6.56c2.75-2.74,2.75-7.19,0-9.94h0c-.31-.31-.64-.59-1-.84-.41-.28-.66-.74-.68-1.23-.04-1.09.37-2.14,1.14-2.91l2.05-2.04c.54-.54,1.39-.61,2.01-.17.71.5,1.38,1.06,2,1.68h0Zm13.76-13.76c-5.8-5.79-15.19-5.79-20.99,0l-6.55,6.56-.04.04c-5.78,5.82-5.74,15.21.07,20.99.61.6,1.26,1.15,1.97,1.64.62.44,1.47.37,2.01-.17l2.06-2.06c.77-.77,1.18-1.82,1.14-2.91-.02-.49-.27-.95-.68-1.23-.36-.25-.69-.53-1-.84-2.75-2.74-2.75-7.19,0-9.94h0s6.56-6.56,6.56-6.56c2.68-2.81,7.13-2.92,9.94-.24,2.81,2.68,2.92,7.13.24,9.94-.1.1-.2.2-.3.3l-1.28,1.28c-.42.43-.57,1.05-.37,1.62.56,1.66.88,3.39.95,5.15.04.86.77,1.53,1.63,1.49.39-.02.76-.18,1.04-.46l3.62-3.62c5.79-5.8,5.79-15.19,0-20.99v.02Z"/>
  </g>
</svg>