<?xml version="1.0" encoding="UTF-8"?>
<svg id="Layer_2" data-name="Layer 2" xmlns="http://www.w3.org/2000/svg" viewBox="0 0 49.99 50">
  <defs>
    <style>
      .cls-1 {
        fill: #020202;
        stroke-width: 0px;
      }
    </style>
  </defs>
  <g id="Layer_1-2" data-name="Layer 1">
    <path id="Icon_material-extension" data-name="Icon material-extension" class="cls-1" d="m44.05,23.8h-3.57v-9.51c0-2.63-2.14-4.75-4.76-4.76h-9.51v-3.57C26.2,2.67,23.54,0,20.25,0s-5.95,2.66-5.95,5.95h0v3.58H4.76C2.14,9.54.02,11.67.02,14.29v9.05h3.55c3.55,0,6.43,2.88,6.43,6.43s-2.88,6.43-6.43,6.43H0v9.05c0,2.63,2.14,4.75,4.76,4.76h9.04v-3.57c0-3.55,2.88-6.43,6.43-6.43s6.43,2.88,6.43,6.43h0v3.57h9.05c2.63,0,4.75-2.14,4.76-4.76v-9.52h3.57c3.29,0,5.95-2.66,5.95-5.95,0-3.29-2.66-5.95-5.95-5.95h0,0Z"/>
  </g>
</svg>