<?xml version="1.0" encoding="UTF-8"?>
<svg id="Layer_2" data-name="Layer 2" xmlns="http://www.w3.org/2000/svg" viewBox="0 0 40.91 50">
  <defs>
    <style>
      .cls-1 {
        stroke-width: 0px;
      }
    </style>
  </defs>
  <g id="Layer_1-2" data-name="Layer 1">
    <path id="structure-svgrepo-com" class="cls-1" d="m20.45,13.64h18.18c1.25,0,2.27-1.02,2.27-2.27V2.27C40.91,1.02,39.89,0,38.63,0h-18.18c-1.25,0-2.27,1.02-2.27,2.27v2.27H4.55v-2.27c0-1.26-1.02-2.27-2.27-2.27S0,1.02,0,2.27h0v40.91c0,1.25,1.02,2.27,2.27,2.27h15.91v2.27c0,1.25,1.01,2.27,2.27,2.27,0,0,0,0,0,0h18.18c1.25,0,2.27-1.02,2.27-2.27v-9.09c0-1.25-1.02-2.27-2.27-2.27h-18.18c-1.25,0-2.27,1.02-2.27,2.27v2.27H4.55v-13.64h13.64v2.27c0,1.25,1.02,2.27,2.27,2.27h18.18c1.25,0,2.27-1.02,2.27-2.27v-9.09c0-1.25-1.02-2.27-2.27-2.27h-18.18c-1.25,0-2.27,1.02-2.27,2.27v2.27H4.55v-13.64h13.64v2.27c0,1.25,1.01,2.27,2.27,2.27,0,0,0,0,0,0Zm2.27,27.27h13.64v4.55h-13.63v-4.55Zm0-18.18h13.64v4.55h-13.63v-4.55Zm0-18.18h13.64v4.55h-13.63v-4.55Z"/>
  </g>
</svg>